#tb 0: 1/25
#media_type 0: video
#codec_id 0: rawvideo
#dimensions 0: 416x240
#sar 0: 0/1
0,          0,          0,        1,   149760, 0x1ae5f13d
0,          1,          1,        1,   149760, 0x0a6ad0e3
0,          2,          2,        1,   149760, 0x2415af05
0,          3,          3,        1,   149760, 0xf50f6eef
0,          4,          4,        1,   149760, 0xef65835c
0,          5,          5,        1,   149760, 0x4929b5cb
0,          6,          6,        1,   149760, 0x165c6f55
0,          7,          7,        1,   149760, 0x9caaa249
0,          8,          8,        1,   149760, 0x6c25c4cf
0,          9,          9,        1,   149760, 0x4678cef0
0,         10,         10,        1,   149760, 0x72e04433
0,         11,         11,        1,   149760, 0x36f8aa9d
0,         12,         12,        1,   149760, 0x255189ad
0,         13,         13,        1,   149760, 0x712d7f7f
0,         14,         14,        1,   149760, 0x4d088988
0,         15,         15,        1,   149760, 0xc0da3925
0,         16,         16,        1,   149760, 0x9990db7c
0,         17,         17,        1,   149760, 0xb02cc0e8
0,         18,         18,        1,   149760, 0x3e859d8f
0,         19,         19,        1,   149760, 0xce786bc1
0,         20,         20,        1,   149760, 0x87555e5f
0,         21,         21,        1,   149760, 0x3c95fb7e
0,         22,         22,        1,   149760, 0xf092b65e
0,         23,         23,        1,   149760, 0x7db2c04c
0,         24,         24,        1,   149760, 0x7d39eb21
0,         25,         25,        1,   149760, 0x2cfd7d57
0,         26,         26,        1,   149760, 0xb1902c06
0,         27,         27,        1,   149760, 0xe0eae1d7
0,         28,         28,        1,   149760, 0xf8212977
0,         29,         29,        1,   149760, 0x6cb31328
0,         30,         30,        1,   149760, 0x862ab736
0,         31,         31,        1,   149760, 0xc7a87f44
0,         32,         32,        1,   149760, 0x8ff7a1a1
0,         33,         33,        1,   149760, 0xd7bee49b
0,         34,         34,        1,   149760, 0x1925db84
0,         35,         35,        1,   149760, 0xf32a7dc6
0,         36,         36,        1,   149760, 0x02a1e3b6
0,         37,         37,        1,   149760, 0xb6398aad
0,         38,         38,        1,   149760, 0xa3756e2d
0,         39,         39,        1,   149760, 0xf90f3732
0,         40,         40,        1,   149760, 0x3b05115a
0,         41,         41,        1,   149760, 0x81ca9bdb
0,         42,         42,        1,   149760, 0xa75ee938
0,         43,         43,        1,   149760, 0x9e5c232f
0,         44,         44,        1,   149760, 0x64cb04e9
0,         45,         45,        1,   149760, 0x4064df52
0,         46,         46,        1,   149760, 0x47fa0afc
0,         47,         47,        1,   149760, 0xd209252e
0,         48,         48,        1,   149760, 0x2f811f02
0,         49,         49,        1,   149760, 0x733b6721
0,         50,         50,        1,   149760, 0x30b12427
0,         51,         51,        1,   149760, 0xdf58d3e2
0,         52,         52,        1,   149760, 0xc144d7be
0,         53,         53,        1,   149760, 0x48f0ac79
0,         54,         54,        1,   149760, 0xb8d8a2c6
0,         55,         55,        1,   149760, 0x2a7d916d
0,         56,         56,        1,   149760, 0xd9d38cd5
0,         57,         57,        1,   149760, 0xd7c7f9a6
0,         58,         58,        1,   149760, 0x64d0df7a
0,         59,         59,        1,   149760, 0x4e365cff
0,         60,         60,        1,   149760, 0x74bc2a8b
0,         61,         61,        1,   149760, 0x70a7cd2b
0,         62,         62,        1,   149760, 0x0836b51e
0,         63,         63,        1,   149760, 0xbc37b5d7
0,         64,         64,        1,   149760, 0xb6d651e5
0,         65,         65,        1,   149760, 0x7aa0e35f
0,         66,         66,        1,   149760, 0x0fbc89a3
0,         67,         67,        1,   149760, 0x2ca2f2a6
0,         68,         68,        1,   149760, 0xf742c5c5
0,         69,         69,        1,   149760, 0x4117208f
0,         70,         70,        1,   149760, 0xec392efb
0,         71,         71,        1,   149760, 0xbfba5063
0,         72,         72,        1,   149760, 0xb2499f48
0,         73,         73,        1,   149760, 0xf1183244
0,         74,         74,        1,   149760, 0x364a6400
0,         75,         75,        1,   149760, 0xfcfddf36
0,         76,         76,        1,   149760, 0xbcc1b37e
0,         77,         77,        1,   149760, 0xab364748
0,         78,         78,        1,   149760, 0xebb27fcd
0,         79,         79,        1,   149760, 0xe2e7a723
0,         80,         80,        1,   149760, 0xf671b5e0
0,         81,         81,        1,   149760, 0xbf0cc349
0,         82,         82,        1,   149760, 0xf195d868
0,         83,         83,        1,   149760, 0xe0097460
0,         84,         84,        1,   149760, 0x3d4c1812
0,         85,         85,        1,   149760, 0x133cd867
